<svg xmlns="http://www.w3.org/2000/svg" fill="white" viewBox="0 0 24 24" role="img">
  <title>LinkedIn</title>
  <path d="M20.447 20.452h-3.554V14.84c0-1.337-.027-3.06-1.865-3.06
  -1.867 0-2.152 1.456-2.152 2.96v5.712H9.323V9h3.414v1.561h.049c.476-.9
  1.637-1.848 3.37-1.848 3.602 0 4.267 2.37 4.267 5.456v6.283zM5.337
  7.433c-1.144 0-2.07-.926-2.07-2.07
  0-1.144.926-2.07 2.07-2.07s2.07.926
  2.07 2.07c0 1.144-.926 2.07-2.07 2.07zM6.881
  20.452H3.793V9h3.088v11.452zM22.225
  0H1.771C.792 0 0 .774 0 1.729v20.542C0 23.225.792
  24 1.771 24h20.451C23.2 24 24 23.225
  24 22.271V1.729C24 .774 23.2 0 22.222 0h.003z"/>
</svg>